<svg width="64" height="64" viewBox="0 0 64 64" fill="none" xmlns="http://www.w3.org/2000/svg">
<g opacity="0.6">
<rect width="64" height="64" rx="32" fill="#D4D5D7"/>
<path d="M31.0014 43.3137C31.0014 43.866 31.4491 44.3137 32.0014 44.3137C32.5536 44.3137 33.0014 43.866 33.0014 43.3137L33.0014 33L43.3151 33C43.8674 33 44.3151 32.5523 44.3151 32C44.3151 31.4477 43.8674 31 43.3151 31L33.0014 31L33.0014 20.6863C33.0014 20.134 32.5536 19.6863 32.0014 19.6863C31.4491 19.6863 31.0014 20.134 31.0014 20.6863L31.0014 31L20.6877 31C20.1354 31 19.6877 31.4477 19.6877 32C19.6877 32.5523 20.1354 33 20.6877 33L31.0014 33L31.0014 43.3137Z" fill="white" stroke="white" stroke-width="2" stroke-linecap="round"/>
</g>
</svg>
