<svg width="22" height="12" viewBox="0 0 22 12" fill="none" xmlns="http://www.w3.org/2000/svg">
<path fill-rule="evenodd" clip-rule="evenodd" d="M6.23994 4.45264C5.22465 4.45264 4.37007 3.73435 4.13384 2.76717H0.52701C0.235881 2.76717 0 2.5252 0 2.22665C0 1.92809 0.235881 1.68612 0.52701 1.68612H4.13362C4.36955 0.718733 5.22434 0 6.23994 0C7.43669 0 8.41038 0.998691 8.41038 2.22612C8.4102 3.45399 7.43647 4.45264 6.23994 4.45264ZM6.23994 1.08108C5.62898 1.08108 5.13092 1.58681 5.1232 2.21138L5.1234 2.22665L5.12321 2.24157C5.1313 2.86603 5.62921 3.37159 6.23994 3.37159C6.85549 3.37159 7.35635 2.85764 7.35635 2.22612C7.35618 1.59482 6.85528 1.08108 6.23994 1.08108ZM10.9337 8.94652C10.9434 9.56958 11.4405 10.0733 12.0502 10.0733C12.666 10.0733 13.1669 9.55959 13.1669 8.92804C13.1669 8.2967 12.666 7.783 12.0502 7.783C11.4403 7.783 10.9431 8.28699 10.9337 8.91008C10.9339 8.91617 10.934 8.92228 10.934 8.92842C10.934 8.93448 10.9339 8.94051 10.9337 8.94652ZM0.52701 9.46891H9.94433C10.1805 10.436 11.0351 11.1543 12.0502 11.1543C13.2472 11.1543 14.2209 10.1557 14.2209 8.92804C14.2209 7.70061 13.2472 6.70192 12.0502 6.70192C11.0349 6.70192 10.1801 7.42058 9.94417 8.3879H0.52701C0.235881 8.3879 0 8.62983 0 8.92842C0 9.22695 0.235881 9.46891 0.52701 9.46891ZM15.9757 9.46895H21.2173C21.5084 9.46895 21.7443 9.22698 21.7443 8.92842C21.7443 8.62983 21.5084 8.3879 21.2173 8.3879H15.9757C15.6846 8.3879 15.4487 8.62983 15.4487 8.92842C15.4487 9.22698 15.6846 9.46895 15.9757 9.46895ZM10.1652 2.76717H21.2172C21.5083 2.76717 21.7442 2.5252 21.7445 2.22665C21.7445 1.92805 21.5085 1.68612 21.2174 1.68612H10.1652C9.87402 1.68612 9.63814 1.92805 9.63814 2.22665C9.63814 2.52524 9.87402 2.76717 10.1652 2.76717Z" fill="currentColor"/>
</svg>
