<svg width="15" height="15" viewBox="0 0 15 15" fill="none" xmlns="http://www.w3.org/2000/svg">
<path fill-rule="evenodd" clip-rule="evenodd" d="M5.16667 8.97362H9.83333V12.921H12.9444V6.58794L7.5 2.28965L2.05556 6.58794V12.921H5.16667V8.97362ZM0.5 6.20182C0.5 5.95819 0.610812 5.72821 0.800268 5.57864L7.02249 0.666303C7.30335 0.444566 7.69665 0.444566 7.97751 0.666303L14.1997 5.57864C14.3892 5.72821 14.5 5.95819 14.5 6.20182V13.7105C14.5 14.1465 14.1518 14.5 13.7222 14.5H9.05556C8.626 14.5 8.27778 14.1465 8.27778 13.7105V10.5526H6.72222V13.7105C6.72222 14.1465 6.374 14.5 5.94444 14.5H1.27778C0.848223 14.5 0.5 14.1465 0.5 13.7105V6.20182Z" fill="#7F8A94"/>
</svg>
