<svg width="16" height="16" viewBox="0 0 16 16" fill="none" xmlns="http://www.w3.org/2000/svg">
<path d="M8.66536 10.3333C8.66536 10.7015 8.36689 11 7.9987 11C7.63051 11 7.33203 10.7015 7.33203 10.3333L7.33203 7C7.33203 6.63181 7.63051 6.33333 7.9987 6.33333C8.36689 6.33333 8.66537 6.63181 8.66537 7L8.66536 10.3333Z" fill="#F86800"/>
<path d="M7.9987 5.66667C8.36689 5.66667 8.66536 5.36819 8.66536 5C8.66536 4.63181 8.36689 4.33333 7.9987 4.33333C7.63051 4.33333 7.33203 4.63181 7.33203 5C7.33203 5.36819 7.63051 5.66667 7.9987 5.66667Z" fill="#F86800"/>
<path fill-rule="evenodd" clip-rule="evenodd" d="M7.9987 14.3333C11.6806 14.3333 14.6654 11.3486 14.6654 7.66667C14.6654 3.98477 11.6806 1 7.9987 1C4.3168 1 1.33203 3.98477 1.33203 7.66667C1.33203 11.3486 4.3168 14.3333 7.9987 14.3333ZM7.9987 13C10.9442 13 13.332 10.6122 13.332 7.66667C13.332 4.72115 10.9442 2.33333 7.9987 2.33333C5.05318 2.33333 2.66536 4.72115 2.66536 7.66667C2.66536 10.6122 5.05318 13 7.9987 13Z" fill="#F86800"/>
</svg>
