<svg width="20" height="21" viewBox="0 0 20 21" fill="none" xmlns="http://www.w3.org/2000/svg">
<path d="M10.999 5.69926C10.999 5.14698 10.5513 4.69925 9.99903 4.69925C9.44675 4.69924 8.99903 5.14695 8.99902 5.69924L8.99895 12.3464L13.5897 14.412C14.0933 14.6386 14.6853 14.414 14.9119 13.9103C15.1386 13.4067 14.914 12.8147 14.4103 12.5881L10.999 11.0532L10.999 5.69926Z" fill="#7D7D7D"/>
<path fill-rule="evenodd" clip-rule="evenodd" d="M20 10.5C20 16.0228 15.5228 20.5 10 20.5C4.47715 20.5 0 16.0228 0 10.5C0 4.97715 4.47715 0.5 10 0.5C15.5228 0.5 20 4.97715 20 10.5ZM18 10.5C18 14.9183 14.4183 18.5 10 18.5C5.58172 18.5 2 14.9183 2 10.5C2 6.08172 5.58172 2.5 10 2.5C14.4183 2.5 18 6.08172 18 10.5Z" fill="#7D7D7D"/>
</svg>
