<svg width="30" height="31" viewBox="0 0 30 31" fill="none" xmlns="http://www.w3.org/2000/svg">
<path d="M16.5 21.75C16.5 22.5784 15.8284 23.25 15 23.25C14.1716 23.25 13.5 22.5784 13.5 21.75L13.5 14.25C13.5 13.4216 14.1716 12.75 15 12.75C15.8284 12.75 16.5 13.4216 16.5 14.25V21.75Z" fill="#A8B3BD"/>
<path d="M15 11.25C15.8284 11.25 16.5 10.5784 16.5 9.75C16.5 8.92157 15.8284 8.25 15 8.25C14.1716 8.25 13.5 8.92157 13.5 9.75C13.5 10.5784 14.1716 11.25 15 11.25Z" fill="#A8B3BD"/>
<path fill-rule="evenodd" clip-rule="evenodd" d="M15 30.75C23.2843 30.75 30 24.0343 30 15.75C30 7.46573 23.2843 0.75 15 0.75C6.71573 0.75 0 7.46573 0 15.75C0 24.0343 6.71573 30.75 15 30.75ZM15 27.75C21.6274 27.75 27 22.3774 27 15.75C27 9.12258 21.6274 3.75 15 3.75C8.37258 3.75 3 9.12258 3 15.75C3 22.3774 8.37258 27.75 15 27.75Z" fill="#A8B3BD"/>
</svg>
