<svg width="17" height="16" viewBox="0 0 17 16" fill="none" xmlns="http://www.w3.org/2000/svg">
<path d="M9.16536 10.3333C9.16536 10.7015 8.86689 11 8.4987 11C8.13051 11 7.83203 10.7015 7.83203 10.3333L7.83203 7C7.83203 6.63181 8.13051 6.33333 8.4987 6.33333C8.86689 6.33333 9.16537 6.63181 9.16537 7L9.16536 10.3333Z" fill="#F86800"/>
<path d="M8.4987 5.66667C8.86689 5.66667 9.16536 5.36819 9.16536 5C9.16536 4.63181 8.86689 4.33333 8.4987 4.33333C8.13051 4.33333 7.83203 4.63181 7.83203 5C7.83203 5.36819 8.13051 5.66667 8.4987 5.66667Z" fill="#F86800"/>
<path fill-rule="evenodd" clip-rule="evenodd" d="M8.4987 14.3333C12.1806 14.3333 15.1654 11.3486 15.1654 7.66667C15.1654 3.98477 12.1806 1 8.4987 1C4.8168 1 1.83203 3.98477 1.83203 7.66667C1.83203 11.3486 4.8168 14.3333 8.4987 14.3333ZM8.4987 13C11.4442 13 13.832 10.6122 13.832 7.66667C13.832 4.72115 11.4442 2.33333 8.4987 2.33333C5.55318 2.33333 3.16536 4.72115 3.16536 7.66667C3.16536 10.6122 5.55318 13 8.4987 13Z" fill="#F86800"/>
</svg>
