<svg width="8" height="27" viewBox="0 0 8 27" fill="none" xmlns="http://www.w3.org/2000/svg">
<path d="M6.99398 7.11097C6.99398 8.12302 6.96586 9.03668 6.90964 9.85194C6.88153 10.6391 6.8253 11.4122 6.74096 12.1712C6.68474 12.9021 6.6004 13.6331 6.48795 14.364C6.40361 15.0949 6.30522 15.9102 6.19277 16.8098H1.89157C1.751 15.9102 1.6245 15.0949 1.51205 14.364C1.42771 13.605 1.34337 12.86 1.25904 12.129C1.1747 11.3981 1.10442 10.6391 1.04819 9.85194C1.02008 9.03668 1.00602 8.12302 1.00602 7.11097V0.195312H6.99398V7.11097ZM7.5 23.3037C7.5 24.4001 7.13454 25.2576 6.40361 25.876C5.7008 26.4945 4.8996 26.8037 4 26.8037C3.1004 26.8037 2.28514 26.4945 1.55422 25.876C0.851406 25.2576 0.5 24.4001 0.5 23.3037C0.5 22.2355 0.851406 21.3921 1.55422 20.7736C2.28514 20.1552 3.1004 19.8459 4 19.8459C4.8996 19.8459 5.7008 20.1552 6.40361 20.7736C7.13454 21.3921 7.5 22.2355 7.5 23.3037Z" fill="#7D7D7D"/>
</svg>
