<svg width="10" height="10" viewBox="0 0 10 10" fill="none" xmlns="http://www.w3.org/2000/svg">
<path d="M1 2C1 1.72386 0.776142 1.5 0.5 1.5C0.223858 1.5 0 1.72386 0 2V9.5C0 9.77614 0.223858 10 0.5 10H8C8.27614 10 8.5 9.77614 8.5 9.5C8.5 9.22386 8.27614 9 8 9H1V2Z" fill="#E30084"/>
<path d="M9.5 1C9.5 0.723857 9.27614 0.5 9 0.5L4.5 0.5C4.22386 0.5 4 0.723857 4 1C4 1.27614 4.22386 1.5 4.5 1.5H8.5V5.5C8.5 5.77614 8.72386 6 9 6C9.27614 6 9.5 5.77614 9.5 5.5L9.5 1ZM3.35355 7.35355L9.35355 1.35355L8.64645 0.646446L2.64645 6.64645L3.35355 7.35355Z" fill="#E30084"/>
</svg>
