<svg width="11" height="17" viewBox="0 0 11 17" fill="none" xmlns="http://www.w3.org/2000/svg">
<path fill-rule="evenodd" clip-rule="evenodd" d="M4.79734 3.97012L4.79674 3.9726L4.79949 3.96214C4.80246 3.9511 4.80775 3.93207 4.81554 3.90633C4.83119 3.85462 4.85647 3.77722 4.89259 3.68411C4.96636 3.49398 5.07771 3.25817 5.23077 3.04403C5.38475 2.82861 5.55819 2.66673 5.74695 2.57491C5.9197 2.49088 6.15109 2.44197 6.48821 2.52328C7.12206 2.67617 7.36565 3.10822 7.45925 3.65486C7.50711 3.9344 7.50534 4.21282 7.48907 4.42808C7.48108 4.53373 7.46998 4.61931 7.46137 4.67604C7.45762 4.70067 7.45215 4.73209 7.45215 4.73209L5.61223 11.5988C5.60839 11.6131 5.59527 11.6499 5.56901 11.6926C5.54353 11.734 5.51476 11.7663 5.48715 11.7879C5.46238 11.8073 5.43671 11.82 5.40364 11.8266C5.37053 11.8333 5.30125 11.8395 5.18211 11.8075C5.06296 11.7756 5.00607 11.7356 4.9807 11.7133C4.95537 11.691 4.9395 11.6672 4.92775 11.638C4.91465 11.6055 4.90586 11.5632 4.9045 11.5146C4.9031 11.4645 4.91014 11.426 4.91399 11.4117L6.47333 5.59215C6.58768 5.16538 6.33441 4.72671 5.90764 4.61235C5.48087 4.498 5.0422 4.75127 4.92784 5.17804L3.36851 10.9976C3.28553 11.3072 3.2575 11.7733 3.44341 12.2353C3.64741 12.7422 4.081 13.1689 4.768 13.353C5.45499 13.5371 6.04384 13.3844 6.47398 13.0473C6.86601 12.7401 7.07473 12.3226 7.15771 12.0129L9.00511 5.1183C9.00883 5.1044 9.01515 5.07632 9.01515 5.07632L9.01577 5.07337L9.01658 5.06941L9.01876 5.05856C9.02045 5.05003 9.02258 5.03893 9.02505 5.02542C9.03 4.99841 9.03634 4.96162 9.04323 4.91627C9.05697 4.82581 9.07308 4.69997 9.08451 4.54871C9.10709 4.25019 9.11302 3.83291 9.0363 3.38484C8.88074 2.47629 8.34604 1.32551 6.86337 0.967888C6.17677 0.802281 5.5643 0.884514 5.04708 1.1361C4.54587 1.3799 4.18323 1.75809 3.92911 2.11362C3.67407 2.47043 3.50528 2.83643 3.40093 3.10537C3.348 3.2418 3.30973 3.35826 3.28409 3.44302C3.27123 3.48551 3.26145 3.52037 3.25451 3.54616C3.25103 3.55907 3.24826 3.56973 3.24616 3.57799L3.24519 3.58187L1.03846 11.8175C0.863686 12.4697 0.83194 13.4691 1.2027 14.4218C1.58994 15.4169 2.41153 16.3383 3.86384 16.7275C5.32208 17.1181 6.471 16.7187 7.28955 16.0437C8.07069 15.3995 8.52244 14.5335 8.73972 13.9677C8.74975 13.9416 8.7584 13.915 8.76563 13.888L10.686 6.72094C10.8004 6.29417 10.5471 5.8555 10.1203 5.74115C9.69358 5.62679 9.25491 5.88006 9.14055 6.30683L7.23158 13.4312C7.06563 13.8491 6.74862 14.4159 6.27159 14.8093C5.8177 15.1836 5.19506 15.4277 4.27791 15.182C3.35483 14.9346 2.91056 14.3986 2.69379 13.8416C2.46055 13.2422 2.48666 12.5947 2.58394 12.2316L4.7924 3.98951M4.79674 3.9726L4.79699 3.97155L4.79734 3.97012" fill="#7D7D7D"/>
</svg>
