<svg width="12" height="16" viewBox="0 0 12 16" fill="none" xmlns="http://www.w3.org/2000/svg">
<path fill-rule="evenodd" clip-rule="evenodd" d="M2.25 5.33333V3.80952C2.25 1.70558 3.92893 0 6 0C8.07107 0 9.75 1.70558 9.75 3.80952V5.33333H11.25C11.6642 5.33333 12 5.67445 12 6.09524V15.2381C12 15.6589 11.6642 16 11.25 16H0.75C0.335786 16 0 15.6589 0 15.2381V6.09524C0 5.67445 0.335786 5.33333 0.75 5.33333H2.25ZM8.25 3.80952V5.33333H3.75V3.80952C3.75 2.54716 4.75736 1.52381 6 1.52381C7.24264 1.52381 8.25 2.54716 8.25 3.80952ZM7.5 10.6667C7.5 11.5082 6.82843 12.1905 6 12.1905C5.17157 12.1905 4.5 11.5082 4.5 10.6667C4.5 9.82509 5.17157 9.14286 6 9.14286C6.82843 9.14286 7.5 9.82509 7.5 10.6667Z" fill="#7D7D7D"/>
<path fill-rule="evenodd" clip-rule="evenodd" d="M3.75 5.33333V3.80952C3.75 2.54716 4.75736 1.52381 6 1.52381C7.24264 1.52381 8.25 2.54716 8.25 3.80952V5.33333H3.75ZM2.25 3.80952C2.25 1.70558 3.92893 0 6 0C8.07107 0 9.75 1.70558 9.75 3.80952V5.33333H11.25C11.6642 5.33333 12 5.67445 12 6.09524V15.2381C12 15.6589 11.6642 16 11.25 16H0.75C0.335786 16 0 15.6589 0 15.2381V6.09524C0 5.67445 0.335786 5.33333 0.75 5.33333H2.25V3.80952ZM6 12.1905C6.82843 12.1905 7.5 11.5082 7.5 10.6667C7.5 9.82509 6.82843 9.14286 6 9.14286C5.17157 9.14286 4.5 9.82509 4.5 10.6667C4.5 11.5082 5.17157 12.1905 6 12.1905Z" fill="#7D7D7D"/>
</svg>
