<svg width="20" height="20" viewBox="0 0 20 20" fill="none" xmlns="http://www.w3.org/2000/svg">
<path fill-rule="evenodd" clip-rule="evenodd" d="M20 10C20 15.5228 15.5228 20 10 20C4.47715 20 0 15.5228 0 10C0 4.47715 4.47715 0 10 0C15.5228 0 20 4.47715 20 10ZM11 15C11 15.5523 10.5523 16 10 16C9.44771 16 9 15.5523 9 15C9 14.4477 9.44771 14 10 14C10.5523 14 11 14.4477 11 15ZM8.5 7.31C8.5 6.65946 9.09568 6 10 6C10.9043 6 11.5 6.65946 11.5 7.31C11.5 7.6112 11.2231 8.27043 10.5528 8.60557C9.67344 9.04525 9.30775 9.87001 9.15314 10.4224C9.07189 10.7127 9.03438 10.9764 9.01663 11.1665C9.00764 11.2627 9.00344 11.3432 9.00151 11.4026C9.00054 11.4324 9.00014 11.4572 9.00001 11.4762L8.99998 11.5005L9.00004 11.5093L9.00008 11.5129L9.0001 11.5145L9.00013 11.5159C9.0089 12.0681 9.46368 12.5087 10.0159 12.4999C10.5659 12.4911 11.0052 12.0399 11 11.4907C11 11.4876 11.0001 11.4794 11.0005 11.4675C11.0012 11.4435 11.0032 11.4038 11.008 11.3525C11.0178 11.2475 11.0383 11.1072 11.0791 10.9615C11.1686 10.6418 11.3029 10.4666 11.4472 10.3944C12.7769 9.72957 13.5 8.3888 13.5 7.31C13.5 5.40898 11.8571 4 10 4C8.1429 4 6.5 5.40898 6.5 7.31C6.5 7.86228 6.94772 8.31 7.5 8.31C8.05229 8.31 8.5 7.86228 8.5 7.31Z" fill="#666666"/>
</svg>
