<svg width="16" height="16" viewBox="0 0 16 16" fill="none" xmlns="http://www.w3.org/2000/svg">
<path fill-rule="evenodd" clip-rule="evenodd" d="M16 8C16 12.4183 12.4183 16 8 16C3.58172 16 0 12.4183 0 8C0 3.58172 3.58172 0 8 0C12.4183 0 16 3.58172 16 8ZM8 4C8.44183 4 8.8 4.35817 8.8 4.8L8.8 7.2H11.2C11.6418 7.2 12 7.55817 12 8C12 8.44183 11.6418 8.8 11.2 8.8H8.8L8.8 11.2C8.8 11.6418 8.44183 12 8 12C7.55817 12 7.2 11.6418 7.2 11.2L7.2 8.8H4.8C4.35817 8.8 4 8.44183 4 8C4 7.55817 4.35817 7.2 4.8 7.2H7.2L7.2 4.8C7.2 4.35817 7.55817 4 8 4Z" fill="#666666"/>
</svg>
