<svg width="16" height="16" viewBox="0 0 16 16" fill="none" xmlns="http://www.w3.org/2000/svg">
<path fill-rule="evenodd" clip-rule="evenodd" d="M4 0C3.55817 0 3.2 0.358172 3.2 0.8V12C3.2 12.4418 3.55817 12.8 4 12.8H15.2C15.6418 12.8 16 12.4418 16 12V0.8C16 0.358172 15.6418 0 15.2 0H4ZM4.8 1.6V11.2H14.4V1.6H4.8Z" fill="white"/>
<path d="M1.6 3.2C1.6 2.75817 1.24183 2.4 0.8 2.4C0.358172 2.4 0 2.75817 0 3.2V15.2C0 15.6418 0.358172 16 0.8 16H12.8C13.2418 16 13.6 15.6418 13.6 15.2C13.6 14.7582 13.2418 14.4 12.8 14.4H1.6V3.2Z" fill="white"/>
</svg>
