<svg width="24" height="24" viewBox="0 0 24 24" fill="none" xmlns="http://www.w3.org/2000/svg">
<path fill-rule="evenodd" clip-rule="evenodd" d="M17 3C17.5523 3 18 3.44772 18 4V4.89478C19.6569 4.89478 21 6.23792 21 7.89478V18C21 19.6569 19.6569 21 18 21H6C4.34315 21 3 19.6569 3 18V7.89478C3 6.23792 4.34315 4.89478 6 4.89478V4C6 3.44772 6.44772 3 7 3C7.55228 3 8 3.44772 8 4V4.89478H16V4C16 3.44772 16.4477 3 17 3ZM19 18V11H5V18C5 18.5523 5.44772 19 6 19H18C18.5523 19 19 18.5523 19 18Z" fill="#7D7D7D"/>
</svg>
