<svg width="15" height="12" viewBox="0 0 15 12" fill="none" xmlns="http://www.w3.org/2000/svg">
<path d="M8.25 0.666667C8.25 0.298477 7.91421 0 7.5 0C7.08579 0 6.75 0.298477 6.75 0.666667V6.39059L5.03033 4.86199C4.73744 4.60164 4.26256 4.60164 3.96967 4.86199C3.67678 5.12234 3.67678 5.54445 3.96967 5.8048L6.96967 8.47147C7.26256 8.73181 7.73744 8.73181 8.03033 8.47147L11.0303 5.8048C11.3232 5.54445 11.3232 5.12234 11.0303 4.86199C10.7374 4.60164 10.2626 4.60164 9.96967 4.86199L8.25 6.39059V0.666667Z" fill="#3B4044"/>
<path d="M0.75 12C0.335786 12 0 11.7015 0 11.3333V6.66666C0 6.29847 0.335787 6 0.750001 6C1.16421 6 1.5 6.29847 1.5 6.66666L1.5 10.6667L13.5 10.6667L13.5 6.66667C13.5 6.29848 13.8358 6 14.25 6C14.6642 6 15 6.29848 15 6.66667L15 11.3333C15 11.7015 14.6642 12 14.25 12L0.75 12Z" fill="#3B4044"/>
</svg>
