<svg width="14" height="14" viewBox="0 0 14 14" fill="none" xmlns="http://www.w3.org/2000/svg">
<path d="M1.11815 6.15963C0.654028 6.15963 0.277781 6.53588 0.277781 7C0.277781 7.46412 0.654028 7.84037 1.11815 7.84037L6.16038 7.84037L6.16038 12.8826C6.16038 13.3467 6.53663 13.723 7.00075 13.723C7.46488 13.723 7.84113 13.3467 7.84113 12.8826L7.84113 7.84037L12.8834 7.84037C13.3475 7.84037 13.7237 7.46413 13.7237 7C13.7237 6.53588 13.3475 6.15963 12.8834 6.15963L7.84113 6.15963V1.1174C7.84113 0.653273 7.46488 0.277026 7.00076 0.277026C6.53663 0.277026 6.16038 0.653273 6.16038 1.1174L6.16038 6.15963L1.11815 6.15963Z" fill="white"/>
</svg>
