<svg width="18" height="19" viewBox="0 0 18 19" fill="none" xmlns="http://www.w3.org/2000/svg">
<path d="M0.292893 16.7929C-0.0976311 17.1834 -0.0976311 17.8166 0.292893 18.2071C0.683418 18.5976 1.31658 18.5976 1.70711 18.2071L9 10.9142L16.2929 18.2071C16.6834 18.5976 17.3166 18.5976 17.7071 18.2071C18.0976 17.8166 18.0976 17.1834 17.7071 16.7929L10.4142 9.5L17.7071 2.20711C18.0976 1.81658 18.0976 1.18342 17.7071 0.792893C17.3166 0.402369 16.6834 0.402369 16.2929 0.792893L9 8.08579L1.70711 0.792894C1.31658 0.40237 0.683418 0.40237 0.292893 0.792894C-0.097631 1.18342 -0.097631 1.81658 0.292893 2.20711L7.58579 9.5L0.292893 16.7929Z" fill="#7F8A94"/>
</svg>
