<svg width="16" height="16" viewBox="0 0 16 16" fill="none" xmlns="http://www.w3.org/2000/svg">
<path d="M3.55556 4.44444C3.55556 1.98985 5.5454 0 8 0C10.4546 0 12.4444 1.98985 12.4444 4.44444C12.4444 6.89904 10.4546 8.88889 8 8.88889C5.5454 8.88889 3.55556 6.89904 3.55556 4.44444Z" fill="#66707A"/>
<path d="M1.36123 10.8516C2.202 10.151 3.3128 9.77778 4.44444 9.77778H11.5556C12.6872 9.77778 13.798 10.151 14.6388 10.8516C15.4843 11.5562 16 12.5503 16 13.6296V15.1111C16 15.602 15.602 16 15.1111 16H0.888889C0.397969 16 0 15.602 0 15.1111V13.6296C0 12.5503 0.515743 11.5562 1.36123 10.8516Z" fill="#66707A"/>
</svg>
