<svg width="18" height="21" viewBox="0 0 18 21" fill="none" xmlns="http://www.w3.org/2000/svg">
<path d="M15.9437 11.858C15.9437 8.14574 12.9343 5.13638 9.22211 5.13638C9.03984 5.13638 8.85941 5.14362 8.68106 5.15779L9.73637 6.2131C10.1114 6.58809 10.1114 7.19608 9.73637 7.57107C9.36138 7.94606 8.7534 7.94606 8.37841 7.57107L5.66248 4.85514C5.28749 4.48015 5.28749 3.87217 5.66248 3.49717L8.37841 0.781244C8.7534 0.406252 9.36138 0.406252 9.73637 0.781244C10.1114 1.15624 10.1114 1.76422 9.73637 2.13921L8.64034 3.23524C8.83271 3.22243 9.0267 3.21593 9.22211 3.21593C13.995 3.21593 17.8641 7.0851 17.8641 11.858C17.8641 16.6308 13.995 20.5 9.22211 20.5C4.44925 20.5 0.580078 16.6308 0.580078 11.858C0.580078 9.6669 1.39673 7.66424 2.74084 6.14137C3.09177 5.74377 3.69857 5.70594 4.09617 6.05687C4.49377 6.4078 4.53161 7.0146 4.18068 7.4122C3.13435 8.59768 2.50053 10.1526 2.50053 11.858C2.50053 15.5702 5.50989 18.5795 9.22211 18.5795C12.9343 18.5795 15.9437 15.5702 15.9437 11.858Z" fill="#ffffff"/>
</svg>
