<svg width="16" height="16" viewBox="0 0 16 16" fill="none" xmlns="http://www.w3.org/2000/svg">
<path d="M8.66927 10.3333C8.66927 10.7015 8.37079 11 8.0026 11C7.63441 11 7.33594 10.7015 7.33594 10.3333L7.33594 7C7.33594 6.63181 7.63441 6.33333 8.0026 6.33333C8.37079 6.33333 8.66927 6.63181 8.66927 7L8.66927 10.3333Z" fill="#F86800"/>
<path d="M8.0026 5.66667C8.37079 5.66667 8.66927 5.36819 8.66927 5C8.66927 4.63181 8.37079 4.33333 8.0026 4.33333C7.63441 4.33333 7.33594 4.63181 7.33594 5C7.33594 5.36819 7.63441 5.66667 8.0026 5.66667Z" fill="#F86800"/>
<path fill-rule="evenodd" clip-rule="evenodd" d="M8.0026 14.3333C11.6845 14.3333 14.6693 11.3486 14.6693 7.66667C14.6693 3.98477 11.6845 1 8.0026 1C4.32071 1 1.33594 3.98477 1.33594 7.66667C1.33594 11.3486 4.32071 14.3333 8.0026 14.3333ZM8.0026 13C10.9481 13 13.3359 10.6122 13.3359 7.66667C13.3359 4.72115 10.9481 2.33333 8.0026 2.33333C5.05709 2.33333 2.66927 4.72115 2.66927 7.66667C2.66927 10.6122 5.05709 13 8.0026 13Z" fill="#F86800"/>
</svg>
