<svg width="11" height="12" viewBox="0 0 11 12" fill="none" xmlns="http://www.w3.org/2000/svg">
<path d="M8.09899 0.331691L7.52036 0.910317L9.47301 2.86297L10.0516 2.28434C10.1119 2.22409 10.164 2.15901 10.2079 2.09061C10.4675 1.68649 10.441 1.16641 10.1149 0.840328L9.543 0.26841C9.21692 -0.057674 8.69684 -0.0841552 8.29272 0.175383C8.22432 0.219313 8.15924 0.271438 8.09899 0.331691Z" fill="white"/>
<path d="M0.69412 7.84898L0.694121 9.08892C0.679259 9.37076 0.895865 9.59125 1.17792 9.5814L2.48434 9.586C2.61979 9.58127 2.75706 9.51568 2.85788 9.41663L8.95845 3.43178L7.02324 1.46187L0.911919 7.45727C0.813003 7.5542 0.6941 7.67071 0.69412 7.84898Z" fill="white"/>
<path d="M0.975561 12H10.028C10.528 12 10.9333 11.5947 10.9333 11.0948C10.9333 10.5948 10.528 10.1895 10.028 10.1895H0.97556C0.475606 10.1895 0.0703125 10.5948 0.0703125 11.0948C0.0703125 11.5947 0.475606 12 0.975561 12Z" fill="white"/>
</svg>
