<svg width="13" height="16" viewBox="0 0 13 16" fill="none" xmlns="http://www.w3.org/2000/svg">
<path fill-rule="evenodd" clip-rule="evenodd" d="M3.11719 5.33333V3.80952C3.11719 1.70558 4.79612 0 6.86719 0C8.93825 0 10.6172 1.70558 10.6172 3.80952V5.33333H12.1172C12.5314 5.33333 12.8672 5.67445 12.8672 6.09524V15.2381C12.8672 15.6589 12.5314 16 12.1172 16H1.61719C1.20297 16 0.867188 15.6589 0.867188 15.2381V6.09524C0.867188 5.67445 1.20297 5.33333 1.61719 5.33333H3.11719ZM9.11719 3.80952V5.33333H4.61719V3.80952C4.61719 2.54716 5.62455 1.52381 6.86719 1.52381C8.10983 1.52381 9.11719 2.54716 9.11719 3.80952ZM8.36719 10.6667C8.36719 11.5082 7.69561 12.1905 6.86719 12.1905C6.03876 12.1905 5.36719 11.5082 5.36719 10.6667C5.36719 9.82509 6.03876 9.14286 6.86719 9.14286C7.69561 9.14286 8.36719 9.82509 8.36719 10.6667Z" fill="#7D7D7D"/>
<path fill-rule="evenodd" clip-rule="evenodd" d="M4.61719 5.33333V3.80952C4.61719 2.54716 5.62455 1.52381 6.86719 1.52381C8.10983 1.52381 9.11719 2.54716 9.11719 3.80952V5.33333H4.61719ZM3.11719 3.80952C3.11719 1.70558 4.79612 0 6.86719 0C8.93825 0 10.6172 1.70558 10.6172 3.80952V5.33333H12.1172C12.5314 5.33333 12.8672 5.67445 12.8672 6.09524V15.2381C12.8672 15.6589 12.5314 16 12.1172 16H1.61719C1.20297 16 0.867188 15.6589 0.867188 15.2381V6.09524C0.867188 5.67445 1.20297 5.33333 1.61719 5.33333H3.11719V3.80952ZM6.86719 12.1905C7.69561 12.1905 8.36719 11.5082 8.36719 10.6667C8.36719 9.82509 7.69561 9.14286 6.86719 9.14286C6.03876 9.14286 5.36719 9.82509 5.36719 10.6667C5.36719 11.5082 6.03876 12.1905 6.86719 12.1905Z" fill="#7D7D7D"/>
</svg>
